<svg width="703" height="107" viewBox="0 0 703 107" fill="none" xmlns="http://www.w3.org/2000/svg">
<path fill-rule="evenodd" clip-rule="evenodd" d="M86.32 15.18H90.46L93.88 12.48V6.54L92.8 4.73999C90.28 4.61999 85.06 3.89999 77.14 2.58C72.58 1.86 69.16 1.44 66.88 1.31999C64.72 1.07999 63.16 1.07999 62.2 1.31999C61.96 1.79999 61.72 2.16 61.48 2.4C60.76 3.12 59.98 3.42 59.14 3.3C58.42 3.3 57.7 3.18 56.98 2.93999C56.26 2.58 55.6 2.22 55 1.86L53.2 0.419992L36.82 1.13999C32.98 1.61999 29.68 2.1 26.92 2.58C24.28 2.93999 21.94 3.35999 19.9 3.83999C17.98 4.31999 16.3 4.85999 14.86 5.45999C13.42 5.93999 12.04 6.47999 10.72 7.07999C10.48 7.07999 10.24 7.01999 10 6.89999C9.76 6.78 9.34 6.72 8.74 6.72C8.26 6.6 7.48 6.54 6.4 6.54C5.44 6.54 4.12 6.66 2.44 6.89999L0.280001 12.12C0.4 13.8 0.64 15.24 1 16.44C1.36 17.52 1.78 18.66 2.26 19.86L5.5 22.2L15.76 20.04C15.76 18.48 16.06 17.64 16.66 17.52C17.26 17.4 17.92 17.22 18.64 16.98C19.84 16.38 21.4 15.96 23.32 15.72C25.24 15.48 27.58 15.18 30.34 14.82C31.3 14.94 32.32 15.12 33.4 15.36C34.6 15.6 35.62 15.36 36.46 14.64L37.18 15.18L36.46 21.3C36.22 23.22 35.98 25.02 35.74 26.7C35.38 28.74 35.02 30.54 34.66 32.1C33.94 32.1 34.12 34.38 35.2 38.94C36.52 43.14 36.04 45.06 33.76 44.7V52.44C33.28 54.48 33.04 55.8 33.04 56.4C33.04 56.88 32.74 57.6 32.14 58.56L31.96 58.74L31.6 59.1C31.6 59.22 31.54 59.34 31.42 59.46V62.34C31.42 63.18 31.36 64.08 31.24 65.04C31.12 66.6 31 68.28 30.88 70.08C30.88 71.88 30.76 73.44 30.52 74.76C32.32 74.76 33.16 77.28 33.04 82.32C32.8 87.36 32.8 90.6 33.04 92.04C33.28 93.12 33.34 93.9 33.22 94.38V96.9C33.22 98.34 33.16 99.48 33.04 100.32C32.92 101.04 32.8 101.58 32.68 101.94C32.56 102.18 32.44 102.36 32.32 102.48C32.2 102.48 32.14 102.54 32.14 102.66L38.08 106.8H38.8C39.16 106.68 39.46 106.62 39.7 106.62H40.24L62.02 101.76L62.92 100.32L60.94 90.78C60.7 89.82 60.52 88.56 60.4 87C60.28 85.32 60.16 83.28 60.04 80.88C59.92 76.92 59.98 71.4 60.22 64.32C60.46 57.12 61.06 47.58 62.02 35.7C62.74 31.74 63.94 29.1 65.62 27.78V14.1C66.58 14.34 68.5 14.52 71.38 14.64C74.26 14.64 77.44 14.7 80.92 14.82C82.96 14.94 84.76 15.06 86.32 15.18ZM93 58.8125C91.25 62.8125 90.375 67.1667 90.375 71.875C90.375 77 91.2708 81.625 93.0625 85.75C94.8542 89.8333 97.2917 93.3125 100.375 96.1875C103.458 99.0625 107.063 101.271 111.188 102.812C115.313 104.354 119.708 105.125 124.375 105.125C129.875 105.125 134.729 104.229 138.938 102.438C143.188 100.604 146.771 98.1667 149.688 95.125C152.604 92.0833 154.813 88.5833 156.313 84.625C157.813 80.6667 158.563 76.5417 158.563 72.25C158.563 67.125 157.667 62.5 155.875 58.375C154.125 54.25 151.708 50.75 148.625 47.875C145.542 45 141.917 42.7917 137.75 41.25C133.625 39.6667 129.208 38.875 124.5 38.875C119.708 38.875 115.229 39.7083 111.063 41.375C106.896 43.0417 103.271 45.3542 100.188 48.3125C97.1458 51.2708 94.75 54.7708 93 58.8125ZM133.938 98.8125C131.479 99.9792 128.771 100.562 125.813 100.562C122.021 100.562 118.688 99.7708 115.813 98.1875C112.979 96.5625 110.604 94.3333 108.688 91.5C106.771 88.625 105.313 85.25 104.313 81.375C103.354 77.5 102.875 73.3125 102.875 68.8125C102.875 64.8125 103.375 61.25 104.375 58.125C105.375 54.9583 106.771 52.2917 108.563 50.125C110.396 47.9583 112.542 46.3125 115 45.1875C117.458 44.0208 120.167 43.4375 123.125 43.4375C126.958 43.4375 130.313 44.2292 133.188 45.8125C136.063 47.3958 138.438 49.6042 140.313 52.4375C142.229 55.2292 143.667 58.5625 144.625 62.4375C145.583 66.2708 146.063 70.4375 146.063 74.9375C146.063 78.9375 145.563 82.5208 144.563 85.6875C143.563 88.8542 142.167 91.5417 140.375 93.75C138.583 95.9583 136.438 97.6458 133.938 98.8125ZM186.375 94.25C184.208 91.6667 183.125 87.625 183.125 82.125V64.4375C183.125 60.8958 183.167 57.8125 183.25 55.1875C183.333 52.5208 183.458 50.2292 183.625 48.3125C183.792 46.3958 183.979 44.7917 184.188 43.5C184.396 42.2083 184.625 41.125 184.875 40.25V40H170.438V40.25C170.688 41.125 170.917 42.2083 171.125 43.5C171.333 44.7917 171.521 46.3958 171.688 48.3125C171.854 50.2292 171.979 52.5208 172.063 55.1875C172.146 57.8125 172.188 60.8958 172.188 64.4375V85.6875C172.188 88.1458 172.5 90.5417 173.125 92.875C173.792 95.2083 174.833 97.2917 176.25 99.125C177.708 100.958 179.563 102.438 181.813 103.562C184.104 104.688 186.875 105.25 190.125 105.25C192.25 105.25 194.396 104.896 196.563 104.188C198.771 103.521 200.938 102.625 203.063 101.5C205.229 100.375 207.292 99.1042 209.25 97.6875C211.25 96.2708 213.104 94.8333 214.813 93.375C214.688 96 214.479 98.125 214.188 99.75C213.938 101.375 213.688 102.708 213.438 103.75V104H227.875V103.75C227.625 102.875 227.396 101.792 227.188 100.5C226.979 99.2083 226.792 97.6042 226.625 95.6875C226.458 93.7708 226.333 91.5 226.25 88.875C226.167 86.2083 226.125 83.1042 226.125 79.5625V64.4375C226.125 60.8958 226.167 57.8125 226.25 55.1875C226.333 52.5208 226.458 50.2292 226.625 48.3125C226.792 46.3958 226.979 44.7917 227.188 43.5C227.396 42.2083 227.625 41.125 227.875 40.25V40H213.438V40.25C213.688 41.125 213.917 42.2083 214.125 43.5C214.375 44.7917 214.563 46.3958 214.688 48.3125C214.854 50.2292 214.979 52.5208 215.063 55.1875C215.188 57.8125 215.25 60.8958 215.25 64.4375V79.5625V83.9375C215.25 85.2708 215.208 86.5417 215.125 87.75C213.625 89.1667 211.979 90.5 210.188 91.75C208.438 93 206.667 94.1042 204.875 95.0625C203.125 95.9792 201.417 96.7292 199.75 97.3125C198.083 97.8542 196.583 98.125 195.25 98.125C191.542 98.125 188.583 96.8333 186.375 94.25ZM292.688 101.812L297.313 90.6875L296.563 90.3125C295.604 91.8958 294.417 93.3125 293 94.5625C291.583 95.8125 290.021 96.8958 288.313 97.8125C286.646 98.6875 284.854 99.375 282.938 99.875C281.063 100.333 279.167 100.562 277.25 100.562C273.125 100.562 269.521 99.7708 266.438 98.1875C263.396 96.5625 260.854 94.3333 258.813 91.5C256.813 88.625 255.292 85.25 254.25 81.375C253.25 77.5 252.75 73.3125 252.75 68.8125C252.75 64.8125 253.271 61.25 254.313 58.125C255.396 54.9583 256.896 52.2917 258.813 50.125C260.729 47.9583 263.021 46.3125 265.688 45.1875C268.354 44.0208 271.313 43.4375 274.563 43.4375C276.563 43.4375 278.521 43.6458 280.438 44.0625C282.354 44.4792 284.167 45.0625 285.875 45.8125C287.625 46.5625 289.208 47.4792 290.625 48.5625C292.083 49.6042 293.333 50.7708 294.375 52.0625L295.125 51.625L290.688 41C288.604 40.375 286.229 39.875 283.563 39.5C280.896 39.0833 278.396 38.875 276.063 38.875C270.938 38.875 266.188 39.7083 261.813 41.375C257.438 43.0417 253.625 45.3542 250.375 48.3125C247.167 51.2708 244.646 54.7708 242.813 58.8125C241.021 62.8125 240.125 67.1667 240.125 71.875C240.125 77.1667 241 81.875 242.75 86C244.5 90.125 246.917 93.6042 250 96.4375C253.125 99.2708 256.813 101.438 261.063 102.938C265.354 104.396 270.021 105.125 275.063 105.125C276.479 105.125 277.979 105.042 279.563 104.875C281.146 104.75 282.708 104.542 284.25 104.25C285.833 103.958 287.354 103.604 288.813 103.188C290.271 102.771 291.563 102.312 292.688 101.812ZM349.688 49.75C351.896 52.3333 353 56.375 353 61.875V79.5625C353 83.1042 352.938 86.2083 352.813 88.875C352.729 91.5 352.604 93.7708 352.438 95.6875C352.313 97.6042 352.125 99.2083 351.875 100.5C351.667 101.792 351.438 102.875 351.188 103.75V104H365.625V103.75C365.375 102.875 365.146 101.792 364.938 100.5C364.729 99.2083 364.542 97.6042 364.375 95.6875C364.208 93.7708 364.083 91.5 364 88.875C363.917 86.2083 363.875 83.1042 363.875 79.5625V58.3125C363.875 55.8958 363.542 53.5208 362.875 51.1875C362.25 48.8125 361.208 46.7083 359.75 44.875C358.333 43.0417 356.479 41.5625 354.188 40.4375C351.938 39.3125 349.188 38.75 345.938 38.75C343.771 38.75 341.563 39.1042 339.313 39.8125C337.063 40.5208 334.854 41.4583 332.688 42.625C330.521 43.7917 328.417 45.1042 326.375 46.5625C324.375 48.0208 322.542 49.5 320.875 51V35C320.875 31.4583 320.917 28.375 321 25.75C321.083 23.0833 321.208 20.7917 321.375 18.875C321.542 16.9583 321.729 15.3542 321.938 14.0625C322.146 12.7708 322.375 11.6875 322.625 10.8125V10.5625H308.188V10.8125C308.438 11.6875 308.667 12.7708 308.875 14.0625C309.125 15.3542 309.313 16.9583 309.438 18.875C309.604 20.7917 309.729 23.0833 309.813 25.75C309.938 28.375 310 31.4583 310 35V79.5625C310 83.1042 309.938 86.2083 309.813 88.875C309.729 91.5 309.604 93.7708 309.438 95.6875C309.313 97.6042 309.125 99.2083 308.875 100.5C308.667 101.792 308.438 102.875 308.188 103.75V104H322.625V103.75C322.375 102.875 322.146 101.792 321.938 100.5C321.729 99.2083 321.542 97.6042 321.375 95.6875C321.208 93.7708 321.083 91.5 321 88.875C320.917 86.2083 320.875 83.1042 320.875 79.5625V56.375C322.375 54.9583 324 53.625 325.75 52.375C327.5 51.0833 329.25 49.9583 331 49C332.792 48.0417 334.521 47.2917 336.188 46.75C337.896 46.1667 339.438 45.875 340.813 45.875C344.521 45.875 347.479 47.1667 349.688 49.75ZM383.313 100.5C383.104 101.792 382.875 102.875 382.625 103.75V104H397.563V103.75C397.313 102.875 397.063 101.792 396.813 100.5C396.604 99.2083 396.417 97.6042 396.25 95.6875C396.125 93.7708 396 91.5 395.875 88.875C395.792 86.2083 395.75 83.1042 395.75 79.5625V38.875C395.75 35.3333 395.792 32.25 395.875 29.625C396 26.9583 396.125 24.6667 396.25 22.75C396.417 20.7917 396.604 19.1667 396.813 17.875C397.063 16.5833 397.313 15.5 397.563 14.625V14.375H382.625V14.625C382.875 15.5 383.104 16.5833 383.313 17.875C383.521 19.1667 383.708 20.7917 383.875 22.75C384.042 24.6667 384.167 26.9583 384.25 29.625C384.333 32.25 384.375 35.3333 384.375 38.875V79.5625C384.375 83.1042 384.333 86.2083 384.25 88.875C384.167 91.5 384.042 93.7708 383.875 95.6875C383.708 97.6042 383.521 99.2083 383.313 100.5ZM456.438 49.75C458.646 52.3333 459.75 56.375 459.75 61.875V79.5625C459.75 83.1042 459.688 86.2083 459.563 88.875C459.479 91.5 459.354 93.7708 459.188 95.6875C459.063 97.6042 458.875 99.2083 458.625 100.5C458.417 101.792 458.188 102.875 457.938 103.75V104H472.375V103.75C472.125 102.875 471.896 101.792 471.688 100.5C471.479 99.2083 471.292 97.6042 471.125 95.6875C470.958 93.7708 470.833 91.5 470.75 88.875C470.667 86.2083 470.625 83.1042 470.625 79.5625V58.3125C470.625 55.8958 470.292 53.5208 469.625 51.1875C469 48.8125 467.958 46.7083 466.5 44.875C465.083 43.0417 463.229 41.5625 460.938 40.4375C458.688 39.3125 455.938 38.75 452.688 38.75C450.563 38.75 448.396 39.1042 446.188 39.8125C443.979 40.4792 441.813 41.375 439.688 42.5C437.563 43.5833 435.5 44.8333 433.5 46.25C431.542 47.6667 429.708 49.0833 428 50.5C428.208 47.9167 428.396 45.8333 428.563 44.25C428.771 42.625 429.042 41.2917 429.375 40.25V40H414.938V40.25C415.188 41.125 415.417 42.2083 415.625 43.5C415.875 44.7917 416.063 46.3958 416.188 48.3125C416.354 50.2292 416.479 52.5208 416.563 55.1875C416.688 57.8125 416.75 60.8958 416.75 64.4375V79.5625C416.75 83.1042 416.688 86.2083 416.563 88.875C416.479 91.5 416.354 93.7708 416.188 95.6875C416.063 97.6042 415.875 99.2083 415.625 100.5C415.417 101.792 415.188 102.875 414.938 103.75V104H429.375V103.75C429.125 102.875 428.896 101.792 428.688 100.5C428.479 99.2083 428.292 97.6042 428.125 95.6875C427.958 93.7708 427.833 91.5 427.75 88.875C427.667 86.2083 427.625 83.1042 427.625 79.5625V64.4375L427.75 56.25C429.292 54.8333 430.938 53.5 432.688 52.25C434.438 51 436.188 49.9167 437.938 49C439.688 48.0417 441.396 47.2917 443.063 46.75C444.729 46.1667 446.229 45.875 447.563 45.875C451.271 45.875 454.229 47.1667 456.438 49.75ZM495.375 40.25V40H479V40.25C479.208 40.5 479.604 41.0833 480.188 42C480.771 42.875 481.438 43.9792 482.188 45.3125C482.979 46.6458 483.792 48.1667 484.625 49.875C485.5 51.5417 486.313 53.2917 487.063 55.125L508.438 104.875H512.125L535.187 52.0625C536.479 49.0208 537.687 46.5 538.812 44.5C539.979 42.4583 540.937 41.0417 541.687 40.25V40H530.437V40.25C530.521 40.375 530.604 40.625 530.687 41C530.771 41.3333 530.812 41.7708 530.812 42.3125C530.812 44.1875 530.458 46.0417 529.75 47.875C529.042 49.7083 528.375 51.3958 527.75 52.9375L512.625 88L497.688 52.4375C496.729 50.1042 496.063 48.1667 495.688 46.625C495.313 45.0417 495.125 43.6042 495.125 42.3125C495.125 41.9792 495.146 41.6042 495.188 41.1875C495.229 40.7708 495.292 40.4583 495.375 40.25ZM565.5 102.938C569.542 104.396 573.875 105.125 578.5 105.125C582.875 105.125 586.625 104.729 589.75 103.938C592.875 103.104 595.562 102.104 597.812 100.938L602.437 89.8125L601.687 89.4375C600.729 91.0208 599.562 92.5 598.187 93.875C596.812 95.2083 595.25 96.375 593.5 97.375C591.75 98.375 589.792 99.1667 587.625 99.75C585.5 100.292 583.229 100.562 580.812 100.562C577.312 100.562 574.167 99.8958 571.375 98.5625C568.625 97.2292 566.271 95.3333 564.312 92.875C562.396 90.375 560.875 87.375 559.75 83.875C558.667 80.375 558 76.4583 557.75 72.125C560.5 72.0417 563.583 71.9792 567 71.9375C570.458 71.8958 574 71.875 577.625 71.875C582.708 71.875 587.604 71.8958 592.312 71.9375C597.021 71.9792 601.729 72.0417 606.437 72.125C606.312 66.8333 605.458 62.125 603.875 58C602.333 53.8333 600.208 50.3542 597.5 47.5625C594.833 44.7292 591.667 42.5833 588 41.125C584.333 39.625 580.354 38.875 576.062 38.875C571.729 38.875 567.687 39.7083 563.937 41.375C560.229 43.0417 556.979 45.3542 554.187 48.3125C551.396 51.2708 549.208 54.7708 547.625 58.8125C546.042 62.8125 545.25 67.1667 545.25 71.875C545.25 77.2083 546.104 81.9583 547.812 86.125C549.562 90.25 551.937 93.7292 554.937 96.5625C557.937 99.3542 561.458 101.479 565.5 102.938ZM582.687 67H570.187H563.687C561.604 67 559.625 66.9583 557.75 66.875C557.917 63.1667 558.458 59.875 559.375 57C560.292 54.0833 561.5 51.625 563 49.625C564.5 47.625 566.25 46.1042 568.25 45.0625C570.292 43.9792 572.521 43.4375 574.937 43.4375C577.604 43.4375 580.042 43.9792 582.25 45.0625C584.458 46.1458 586.375 47.6875 588 49.6875C589.625 51.6875 590.958 54.125 592 57C593.042 59.875 593.75 63.125 594.125 66.75C590.708 66.875 586.896 66.9583 582.687 67ZM647.25 52.6875L648.125 52.5625L647.5 42.1875C646.292 41.5208 644.521 40.8333 642.187 40.125C639.896 39.375 637.021 39 633.562 39C630.937 39 628.521 39.3958 626.312 40.1875C624.104 40.9792 622.187 42.1042 620.562 43.5625C618.979 44.9792 617.729 46.7083 616.812 48.75C615.937 50.75 615.5 52.9583 615.5 55.375C615.5 58.3333 616.104 60.9792 617.312 63.3125C618.562 65.6042 620.125 67.7292 622 69.6875C623.875 71.6042 625.875 73.4167 628 75.125C630.167 76.8333 632.187 78.5417 634.062 80.25C635.937 81.9583 637.479 83.75 638.687 85.625C639.937 87.4583 640.562 89.4792 640.562 91.6875C640.562 94.4375 639.646 96.6667 637.812 98.375C636.021 100.083 633.583 100.938 630.5 100.938C628.625 100.938 626.896 100.625 625.312 100C623.729 99.3333 622.312 98.4375 621.062 97.3125C619.854 96.1458 618.833 94.75 618 93.125C617.167 91.5 616.542 89.7083 616.125 87.75H615.125L614.5 99.625C615.375 100.25 616.375 100.917 617.5 101.625C618.667 102.292 619.958 102.917 621.375 103.5C622.833 104.042 624.417 104.5 626.125 104.875C627.875 105.25 629.75 105.438 631.75 105.438C635.125 105.438 638.021 104.958 640.437 104C642.896 103 644.896 101.708 646.437 100.125C648.021 98.5417 649.187 96.75 649.937 94.75C650.687 92.7083 651.062 90.625 651.062 88.5C651.062 85.875 650.417 83.4375 649.125 81.1875C647.875 78.8958 646.292 76.75 644.375 74.75C642.458 72.75 640.375 70.8333 638.125 69C635.917 67.1667 633.854 65.3542 631.937 63.5625C630.021 61.7292 628.417 59.8958 627.125 58.0625C625.875 56.1875 625.25 54.2292 625.25 52.1875C625.25 50.7292 625.5 49.4583 626 48.375C626.5 47.2917 627.167 46.3958 628 45.6875C628.875 44.9375 629.875 44.375 631 44C632.167 43.625 633.396 43.4375 634.687 43.4375C636.562 43.4375 638.208 43.75 639.625 44.375C641.083 44.9583 642.312 45.7083 643.312 46.625C644.354 47.5417 645.187 48.5417 645.812 49.625C646.479 50.7083 646.958 51.7292 647.25 52.6875ZM691.562 99.625C690.354 100.083 689.125 100.312 687.875 100.312C686.667 100.312 685.479 100.146 684.312 99.8125C683.187 99.4792 682.167 98.8542 681.25 97.9375C680.375 97.0208 679.646 95.7708 679.062 94.1875C678.521 92.5625 678.25 90.4583 678.25 87.875V44.875C681 44.9167 683.667 44.9583 686.25 45C688.833 45.0417 691.125 45.1042 693.125 45.1875C695.458 45.2708 697.687 45.3333 699.812 45.375L700.937 39C700.479 39.0833 699.521 39.1875 698.062 39.3125C696.646 39.3958 694.896 39.5 692.812 39.625C690.771 39.7083 688.479 39.7917 685.937 39.875C683.437 39.9167 680.875 39.9583 678.25 40C678.292 37 678.354 34.375 678.437 32.125C678.562 29.8333 678.687 27.8542 678.812 26.1875C678.979 24.5208 679.167 23.1042 679.375 21.9375C679.583 20.7708 679.812 19.7917 680.062 19V18.75H665.625V19C665.833 19.7917 666.042 20.7708 666.25 21.9375C666.458 23.1042 666.625 24.5417 666.75 26.25C666.917 27.9167 667.042 29.8958 667.125 32.1875C667.25 34.4375 667.333 37.0417 667.375 40C665.25 40 663.292 39.9792 661.5 39.9375C659.708 39.8958 658.167 39.8333 656.875 39.75V45.25L667.375 44.875V86.5625C667.375 92.9792 668.917 97.7083 672 100.75C675.125 103.75 679.479 105.25 685.062 105.25C686.937 105.25 688.562 105.125 689.937 104.875C691.312 104.667 692.5 104.396 693.5 104.062C694.542 103.771 695.417 103.458 696.125 103.125L698 102.188L702.062 92.125L701.437 91.8125C700.521 92.9375 699.521 94.0208 698.437 95.0625C697.396 96.0625 696.292 96.9583 695.125 97.75C694 98.5417 692.812 99.1667 691.562 99.625Z" fill="white"/>
</svg>
